<svg width="1302" height="1024" viewBox="0 0 1302 1024" fill="none" xmlns="http://www.w3.org/2000/svg">
<path fill-rule="evenodd" clip-rule="evenodd" d="M9.66895 1033.85L19.2272 1008.93C28.7935 984.877 47.9181 935.906 52.3548 887.074C56.7835 837.385 46.5323 788.691 85.2407 739.536C123.949 690.381 211.617 640.765 235.638 591.748C259.659 542.731 220.023 493.457 199.98 444.855C179.937 396.253 179.478 347.467 169.227 298.773C158.975 250.078 138.932 201.476 133.569 151.88C128.214 103.14 137.546 54.2612 142.217 30.2499L146.879 5.38255L293.758 3.99983L293.992 28.8211C294.217 52.7863 294.677 101.573 295.136 150.359C295.603 200.001 296.063 248.788 296.522 297.574C296.981 346.361 297.44 395.147 297.9 443.934C298.359 492.72 298.826 542.362 299.286 591.149C299.745 639.935 300.204 688.722 300.663 737.508C301.123 786.294 301.582 835.081 302.049 884.723C302.509 933.51 302.968 982.296 303.193 1006.26L303.427 1031.08L9.66895 1033.85Z" fill="#99B8B3" fill-opacity="0.35"/>
<rect x="277" y="6.99988" width="688" height="1024" fill="#F2F8F7"/>
<path fill-rule="evenodd" clip-rule="evenodd" d="M1286.51 -5.00011L1274.14 20.0819C1261.76 44.3051 1237.02 93.6103 1231.35 142.647C1225.69 192.542 1239.1 241.309 1188.92 290.973C1138.74 340.637 1024.98 391.196 993.879 440.591C962.777 489.986 1014.35 539.075 1040.47 587.663C1066.59 636.251 1067.28 685.198 1080.69 733.966C1094.1 782.733 1120.22 831.322 1127.28 881.038C1134.33 929.895 1122.3 979.021 1116.28 1003.15L1110.27 1028.15L919.521 1030.83L919.17 1005.93C918.831 981.888 918.141 932.941 917.451 883.995C916.75 834.189 916.06 785.242 915.37 736.295C914.68 687.349 913.991 638.402 913.301 589.455C912.611 540.508 911.909 490.703 911.22 441.756C910.53 392.809 909.84 343.862 909.15 294.915C908.461 245.969 907.771 197.022 907.069 147.216C906.379 98.2695 905.69 49.3227 905.351 25.2786L905 0.375851L1286.51 -5.00011Z" fill="#99B8B3" fill-opacity="0.35"/>
<path fill-rule="evenodd" clip-rule="evenodd" d="M1198.74 0.999878L1189.3 25.8057C1179.84 49.7609 1160.94 98.5219 1156.73 147.076C1152.53 196.481 1163 244.828 1124.52 293.865C1086.04 342.902 998.6 392.628 974.805 441.458C951.01 490.288 990.871 539.072 1011.14 587.281C1031.4 635.49 1032.09 683.976 1042.56 732.323C1053.04 780.67 1073.3 828.879 1078.89 878.146C1084.47 926.562 1075.36 975.185 1070.8 999.071L1066.25 1023.81L919.384 1025.88L919.036 1001.21C918.7 977.392 918.017 928.907 917.334 880.422C916.639 831.086 915.955 782.601 915.272 734.116C914.589 685.631 913.906 637.146 913.223 588.661C912.539 540.176 911.844 490.84 911.161 442.355C910.478 393.87 909.794 345.385 909.111 296.9C908.428 248.415 907.745 199.93 907.05 150.594C906.366 102.109 905.683 53.6242 905.348 29.807L905 5.13912L1198.74 0.999878Z" fill="#F2F8F7"/>
<path fill-rule="evenodd" clip-rule="evenodd" d="M42.7649 1031.05L52.3208 1005.89C61.8849 981.592 81.005 932.136 85.4371 882.819C89.8611 832.638 79.6053 783.459 118.309 733.82C157.013 684.18 244.677 634.08 268.693 584.578C292.709 535.077 253.069 485.311 233.021 436.224C212.974 387.138 212.51 337.867 202.254 288.688C191.998 239.509 171.951 190.423 166.583 140.334C161.223 91.1089 170.551 41.7458 175.219 17.4965L179.879 -7.61724L326.758 -8.99996L326.994 16.0677C327.222 40.2709 327.686 89.5418 328.15 138.813C328.622 188.948 329.085 238.219 329.549 287.49C330.013 336.761 330.477 386.031 330.941 435.302C331.405 484.573 331.877 534.708 332.34 583.979C332.804 633.25 333.268 682.521 333.732 731.792C334.196 781.063 334.66 830.334 335.132 880.469C335.595 929.74 336.059 979.011 336.287 1003.21L336.523 1028.28L42.7649 1031.05Z" fill="#F2F8F7"/>
</svg>
