<svg width="1302" height="1024" viewBox="0 0 1302 1024" fill="none" xmlns="http://www.w3.org/2000/svg">
<path fill-rule="evenodd" clip-rule="evenodd" d="M9.99658 1024L19.5469 999.292C29.1056 975.434 48.2147 926.868 52.6358 878.434C57.0486 829.152 46.7819 780.851 85.4748 732.108C124.168 683.365 211.82 634.18 235.825 585.569C259.83 536.959 220.179 488.074 200.121 439.862C180.062 391.65 179.587 343.26 169.32 294.959C159.054 246.659 138.995 198.446 133.616 149.252C128.245 100.907 137.562 52.4293 142.225 28.6149L146.879 3.95153L293.758 2.62499L294 27.2441C294.233 51.0143 294.708 99.4036 295.183 147.793C295.666 197.031 296.141 245.42 296.616 293.81C297.09 342.199 297.565 390.588 298.04 438.978C298.515 487.367 298.998 536.605 299.473 584.994C299.948 633.384 300.423 681.773 300.897 730.162C301.372 778.552 301.847 826.941 302.33 876.179C302.805 924.568 303.28 972.958 303.513 996.728L303.755 1021.35L9.99658 1024Z" fill="#99B8B3" fill-opacity="0.35"/>
<rect x="277.327" y="1.43359" width="688" height="1019.83" fill="#F2F8F7"/>
<path fill-rule="evenodd" clip-rule="evenodd" d="M1286.45 1.30408L1274.09 25.9967C1261.72 49.8437 1237 98.3833 1231.35 146.665C1225.71 195.792 1239.14 243.816 1188.98 292.7C1138.82 341.583 1025.07 391.326 993.988 439.952C962.904 488.577 1014.49 536.931 1040.63 584.783C1066.77 632.635 1067.48 680.83 1080.91 728.854C1094.33 776.878 1120.47 824.73 1127.55 873.686C1134.62 921.795 1122.61 970.163 1116.6 993.924L1110.6 1018.53L919.848 1021.11L919.488 996.589C919.141 972.914 918.433 924.718 917.725 876.522C917.004 827.481 916.297 779.285 915.589 731.089C914.881 682.893 914.173 634.698 913.465 586.502C912.757 538.306 912.037 489.265 911.329 441.069C910.621 392.873 909.913 344.678 909.205 296.482C908.497 248.286 907.789 200.09 907.069 151.049C906.361 102.853 905.653 54.6574 905.305 30.9822L904.945 6.46159L1286.45 1.30408Z" fill="#99B8B3" fill-opacity="0.35"/>
<path fill-rule="evenodd" clip-rule="evenodd" d="M1198.58 0L1189.15 24.6742C1179.7 48.5022 1160.83 97.0043 1156.63 145.307C1152.46 194.455 1162.95 242.558 1124.49 291.327C1086.03 340.095 998.61 389.529 974.836 438.098C951.062 486.667 990.944 535.216 1011.23 583.186C1031.52 631.155 1032.22 679.391 1042.72 727.494C1053.21 775.597 1073.5 823.566 1079.11 872.582C1084.71 920.751 1075.63 969.12 1071.08 992.881L1066.54 1017.49L919.668 1019.49L919.31 994.945C918.964 971.251 918.259 923.015 917.555 874.779C916.839 825.697 916.134 777.461 915.43 729.225C914.726 680.989 914.021 632.753 913.317 584.517C912.613 536.282 911.896 487.2 911.192 438.964C910.488 390.728 909.783 342.492 909.079 294.256C908.375 246.02 907.671 197.784 906.954 148.702C906.25 100.467 905.545 52.2307 905.199 28.5359L904.841 3.99483L1198.58 0Z" fill="#F2F8F7"/>
<path fill-rule="evenodd" clip-rule="evenodd" d="M43.0925 1021.31L52.6431 996.627C62.202 972.788 81.3114 924.264 85.733 875.872C90.1462 826.632 79.8798 778.373 118.573 729.671C157.267 680.97 244.92 631.826 268.925 583.258C292.93 534.689 253.28 485.847 233.222 437.676C213.163 389.505 212.689 341.158 202.422 292.898C192.156 244.639 172.098 196.468 166.719 147.317C161.349 99.0133 170.666 50.5772 175.329 26.7833L179.984 2.14112L253.423 1.47785L326.863 0.814579L327.104 25.4126C327.337 49.1623 327.812 97.5099 328.286 145.858C328.769 195.053 329.243 243.401 329.718 291.749C330.192 340.096 330.667 388.444 331.141 436.792C331.615 485.139 332.098 534.335 332.573 582.683C333.047 631.03 333.521 679.378 333.996 727.726C334.47 776.073 334.945 824.421 335.427 873.617C335.902 921.964 336.376 970.312 336.609 994.062L336.851 1018.66L43.0925 1021.31Z" fill="#F2F8F7"/>
</svg>
