<svg width="294" height="1024" viewBox="0 0 294 1024" fill="none" xmlns="http://www.w3.org/2000/svg">
<path fill-rule="evenodd" clip-rule="evenodd" d="M0.0651855 1026.7L9.62114 1001.54C19.1852 977.243 38.3053 927.788 42.7374 878.471C47.1614 828.289 36.9056 779.111 75.6095 729.471C114.313 679.831 201.977 629.731 225.993 580.23C250.009 530.728 210.369 480.962 190.322 431.875C170.274 382.789 169.81 333.518 159.554 284.339C149.299 235.16 129.251 186.074 123.883 135.985C118.523 86.76 127.851 37.397 132.519 13.1476L137.179 -11.9661L284.058 -13.3488L284.294 11.7188C284.522 35.9221 284.986 85.193 285.45 134.464C285.922 184.599 286.386 233.87 286.85 283.141C287.313 332.412 287.777 381.683 288.241 430.953C288.705 480.224 289.177 530.359 289.641 579.63C290.105 628.901 290.568 678.172 291.032 727.443C291.496 776.714 291.96 825.985 292.432 876.12C292.896 925.391 293.36 974.662 293.587 998.865L293.823 1023.93L0.0651855 1026.7Z" fill="#F2F8F7"/>
</svg>
