<svg width="294" height="1022" viewBox="0 0 294 1022" fill="none" xmlns="http://www.w3.org/2000/svg">
<path fill-rule="evenodd" clip-rule="evenodd" d="M293.927 -3.85852L284.483 20.9473C275.027 44.9025 256.128 93.6635 251.915 142.218C247.715 191.622 258.189 239.969 219.707 289.006C181.224 338.043 93.7851 387.77 69.9899 436.6C46.1946 485.43 86.0554 534.214 106.321 582.423C126.587 630.632 127.271 679.117 137.745 727.464C148.22 775.811 168.486 824.02 174.077 873.287C179.656 921.703 170.548 970.326 165.988 994.213L161.439 1018.95L14.5684 1021.02L14.2208 996.351C13.8852 972.534 13.2019 924.049 12.5187 875.564C11.8235 826.228 11.1403 777.743 10.457 729.258C9.77383 680.773 9.0906 632.288 8.40738 583.803C7.72415 535.318 7.02894 485.982 6.34572 437.497C5.6625 389.012 4.97927 340.527 4.29605 292.042C3.61283 243.557 2.9296 195.072 2.23439 145.736C1.55117 97.2508 0.867944 48.7658 0.532325 24.9486L0.18472 0.280725L293.927 -3.85852Z" fill="#F2F8F7"/>
</svg>
